<svg width="456" height="456" viewBox="0 0 456 456" xmlns="http://www.w3.org/2000/svg">
  <defs>
    <linearGradient id="bgGradient" x1="0%" y1="0%" x2="100%" y2="100%">
      <stop offset="0%" style="stop-color:#4a7c59;stop-opacity:1" />
      <stop offset="100%" style="stop-color:#2d5a3d;stop-opacity:1" />
    </linearGradient>
    <linearGradient id="trophyGradient" x1="0%" y1="0%" x2="100%" y2="100%">
      <stop offset="0%" style="stop-color:#f5f5f5;stop-opacity:1" />
      <stop offset="50%" style="stop-color:#e0e0e0;stop-opacity:1" />
      <stop offset="100%" style="stop-color:#c0c0c0;stop-opacity:1" />
    </linearGradient>
  </defs>
  
  <!-- Background -->
  <rect x="0" y="0" width="456" height="456" fill="url(#bgGradient)"/>
  
  <!-- Camera aperture circle -->
  <circle cx="228" cy="228" r="120" fill="#2c2c2c" stroke="#ffffff" stroke-width="6"/>
  
  <!-- Aperture blades -->
  <g transform="translate(228,228)">
    <!-- Blade 1 -->
    <path d="M 0,-80 L 25,-50 L 0,-20 L -25,-50 Z" fill="#ffffff" transform="rotate(0)"/>
    <!-- Blade 2 -->
    <path d="M 0,-80 L 25,-50 L 0,-20 L -25,-50 Z" fill="#ffffff" transform="rotate(45)"/>
    <!-- Blade 3 -->
    <path d="M 0,-80 L 25,-50 L 0,-20 L -25,-50 Z" fill="#ffffff" transform="rotate(90)"/>
    <!-- Blade 4 -->
    <path d="M 0,-80 L 25,-50 L 0,-20 L -25,-50 Z" fill="#ffffff" transform="rotate(135)"/>
    <!-- Blade 5 -->
    <path d="M 0,-80 L 25,-50 L 0,-20 L -25,-50 Z" fill="#ffffff" transform="rotate(180)"/>
    <!-- Blade 6 -->
    <path d="M 0,-80 L 25,-50 L 0,-20 L -25,-50 Z" fill="#ffffff" transform="rotate(225)"/>
    <!-- Blade 7 -->
    <path d="M 0,-80 L 25,-50 L 0,-20 L -25,-50 Z" fill="#ffffff" transform="rotate(270)"/>
    <!-- Blade 8 -->
    <path d="M 0,-80 L 25,-50 L 0,-20 L -25,-50 Z" fill="#ffffff" transform="rotate(315)"/>
  </g>
  
  <!-- Trophy in center -->
  <g transform="translate(228,228)">
    <!-- Trophy cup -->
    <path d="M -30,-15 L -30,15 Q -30,25 -20,25 L 20,25 Q 30,25 30,15 L 30,-15 Q 30,-25 20,-25 L -20,-25 Q -30,-25 -30,-15 Z" fill="url(#trophyGradient)" stroke="#4a7c59" stroke-width="2"/>
    
    <!-- Trophy handles -->
    <ellipse cx="-35" cy="0" rx="6" ry="12" fill="url(#trophyGradient)" stroke="#4a7c59" stroke-width="2"/>
    <ellipse cx="35" cy="0" rx="6" ry="12" fill="url(#trophyGradient)" stroke="#4a7c59" stroke-width="2"/>
    
    <!-- Trophy base -->
    <rect x="-25" y="25" width="50" height="8" fill="url(#trophyGradient)" stroke="#4a7c59" stroke-width="2"/>
    <rect x="-15" y="33" width="30" height="6" fill="url(#trophyGradient)" stroke="#4a7c59" stroke-width="2"/>
    
    <!-- Pine tree symbol -->
    <g transform="translate(0,-3)">
      <polygon points="0,-12 -8,-2 8,-2" fill="#4a7c59"/>
      <polygon points="0,-6 -10,3 10,3" fill="#4a7c59"/>
      <rect x="-1.5" y="3" width="3" height="6" fill="#8b4513"/>
    </g>
  </g>
  
  <!-- App Name -->
  <text x="228" y="380" text-anchor="middle" fill="#ffffff" font-family="Arial, sans-serif" font-size="24" font-weight="bold">Photo Job Manager</text>
</svg>