<svg width="432" height="432" viewBox="0 0 432 432" xmlns="http://www.w3.org/2000/svg">
  <defs>
    <linearGradient id="trophyGradient" x1="0%" y1="0%" x2="100%" y2="100%">
      <stop offset="0%" style="stop-color:#f5f5f5;stop-opacity:1" />
      <stop offset="50%" style="stop-color:#e0e0e0;stop-opacity:1" />
      <stop offset="100%" style="stop-color:#c0c0c0;stop-opacity:1" />
    </linearGradient>
  </defs>
  
  <!-- Camera aperture circle -->
  <circle cx="216" cy="216" r="180" fill="#2c2c2c" stroke="#ffffff" stroke-width="8"/>
  
  <!-- Aperture blades -->
  <g transform="translate(216,216)">
    <!-- Blade 1 -->
    <path d="M 0,-130 L 40,-80 L 0,-30 L -40,-80 Z" fill="#ffffff" transform="rotate(0)"/>
    <!-- Blade 2 -->
    <path d="M 0,-130 L 40,-80 L 0,-30 L -40,-80 Z" fill="#ffffff" transform="rotate(45)"/>
    <!-- Blade 3 -->
    <path d="M 0,-130 L 40,-80 L 0,-30 L -40,-80 Z" fill="#ffffff" transform="rotate(90)"/>
    <!-- Blade 4 -->
    <path d="M 0,-130 L 40,-80 L 0,-30 L -40,-80 Z" fill="#ffffff" transform="rotate(135)"/>
    <!-- Blade 5 -->
    <path d="M 0,-130 L 40,-80 L 0,-30 L -40,-80 Z" fill="#ffffff" transform="rotate(180)"/>
    <!-- Blade 6 -->
    <path d="M 0,-130 L 40,-80 L 0,-30 L -40,-80 Z" fill="#ffffff" transform="rotate(225)"/>
    <!-- Blade 7 -->
    <path d="M 0,-130 L 40,-80 L 0,-30 L -40,-80 Z" fill="#ffffff" transform="rotate(270)"/>
    <!-- Blade 8 -->
    <path d="M 0,-130 L 40,-80 L 0,-30 L -40,-80 Z" fill="#ffffff" transform="rotate(315)"/>
  </g>
  
  <!-- Trophy in center -->
  <g transform="translate(216,216)">
    <!-- Trophy cup -->
    <path d="M -50,-25 L -50,25 Q -50,40 -35,40 L 35,40 Q 50,40 50,25 L 50,-25 Q 50,-40 35,-40 L -35,-40 Q -50,-40 -50,-25 Z" fill="url(#trophyGradient)" stroke="#4a7c59" stroke-width="2"/>
    
    <!-- Trophy handles -->
    <ellipse cx="-60" cy="0" rx="10" ry="18" fill="url(#trophyGradient)" stroke="#4a7c59" stroke-width="2"/>
    <ellipse cx="60" cy="0" rx="10" ry="18" fill="url(#trophyGradient)" stroke="#4a7c59" stroke-width="2"/>
    
    <!-- Trophy base -->
    <rect x="-40" y="40" width="80" height="12" fill="url(#trophyGradient)" stroke="#4a7c59" stroke-width="2"/>
    <rect x="-25" y="52" width="50" height="10" fill="url(#trophyGradient)" stroke="#4a7c59" stroke-width="2"/>
    
    <!-- Pine tree symbol -->
    <g transform="translate(0,-5)">
      <polygon points="0,-18 -12,-3 12,-3" fill="#4a7c59"/>
      <polygon points="0,-10 -15,5 15,5" fill="#4a7c59"/>
      <rect x="-2" y="5" width="4" height="10" fill="#8b4513"/>
    </g>
  </g>
</svg>